<svg width="14" height="14" viewBox="0 0 14 14" fill="none" xmlns="http://www.w3.org/2000/svg">
<path d="M10.5 4.6665C10.5 3.73825 10.1313 2.84801 9.47487 2.19163C8.8185 1.53525 7.92826 1.1665 7 1.1665C6.07174 1.1665 5.1815 1.53525 4.52513 2.19163C3.86875 2.84801 3.5 3.73825 3.5 4.6665C3.5 8.74984 1.75 9.9165 1.75 9.9165H12.25C12.25 9.9165 10.5 8.74984 10.5 4.6665Z" stroke="#7F8082" stroke-width="1.29879" stroke-linecap="round" stroke-linejoin="round"/>
<path d="M8.00906 12.2498C7.9065 12.4266 7.7593 12.5733 7.58219 12.6753C7.40508 12.7773 7.20428 12.831 6.99989 12.831C6.7955 12.831 6.5947 12.7773 6.41759 12.6753C6.24048 12.5733 6.09328 12.4266 5.99072 12.2498" stroke="#7F8082" stroke-width="1.29879" stroke-linecap="round" stroke-linejoin="round"/>
</svg>
