<svg width="16" height="16" viewBox="0 0 16 16" fill="none" xmlns="http://www.w3.org/2000/svg">
<g clip-path="url(#clip0)">
<path d="M6.01555 8.13029C6.59741 8.13029 6.88835 8.42122 6.88835 9.00309L6.88835 11.3694C6.88835 11.9512 6.59741 12.2422 6.01555 12.2422L3.76565 12.2422C3.18379 12.2422 2.89285 11.9512 2.89285 11.3694L2.89285 9.00309C2.89285 7.6454 3.04155 6.4558 3.33895 5.4343C3.62342 4.42572 4.19236 3.53999 5.04577 2.7771C5.33023 2.53142 5.56945 2.49909 5.7634 2.68012L6.63621 3.49473C6.83016 3.67576 6.78491 3.89558 6.50044 4.15419C6.0608 4.5421 5.70522 5.09811 5.43368 5.82221C5.14921 6.55924 5.00697 7.3286 5.00697 8.13029L6.01555 8.13029ZM12.4161 8.13029C12.998 8.13029 13.2889 8.42122 13.2889 9.00309L13.2889 11.3694C13.2889 11.9512 12.998 12.2422 12.4161 12.2422L10.1662 12.2422C9.58434 12.2422 9.2934 11.9512 9.2934 11.3694L9.2934 9.00309C9.2934 7.6454 9.4421 6.4558 9.7395 5.4343C10.024 4.42572 10.5929 3.53999 11.4463 2.7771C11.7308 2.53142 11.97 2.49909 12.164 2.68012L13.0368 3.49473C13.2307 3.67576 13.1855 3.89558 12.901 4.15419C12.4614 4.5421 12.1058 5.09811 11.8342 5.82221C11.5498 6.55924 11.4075 7.3286 11.4075 8.13029L12.4161 8.13029Z" fill="#2C77C0"/>
</g>
<defs>
<clipPath id="clip0">
<rect width="15" height="15" fill="white" transform="translate(0.5 0.5)"/>
</clipPath>
</defs>
</svg>
