<svg width="20" height="20" viewBox="0 0 20 20" fill="none" xmlns="http://www.w3.org/2000/svg">
<path d="M11.301 17.5211C10.4465 17.6756 9.5531 17.6756 8.69861 17.5211C8.37998 17.4634 8.07533 17.6749 8.01775 17.9934C7.96017 18.3118 8.17162 18.6167 8.49006 18.6742C9.46935 18.8513 10.4968 18.8574 11.5095 18.6742C11.828 18.6167 12.0394 18.3118 11.9819 17.9934C11.9243 17.675 11.6195 17.4636 11.301 17.5211Z" fill="#131416"/>
<path d="M2.16865 11.1156C2.17372 11.1156 2.17884 11.1156 2.18396 11.1154C2.50743 11.1071 2.76298 10.8382 2.75466 10.5146C2.70306 8.49144 3.56853 6.37566 5.25434 4.91375C5.49883 4.70172 5.52516 4.33168 5.31313 4.08719C5.1011 3.8427 4.7311 3.81641 4.48657 4.0284C2.53962 5.71684 1.52193 8.16754 1.58318 10.5447C1.59134 10.8631 1.85201 11.1156 2.16865 11.1156Z" fill="#131416"/>
<path d="M14.746 4.91377C16.4263 6.37089 17.2965 8.48171 17.2457 10.5149C17.2375 10.8384 17.4932 11.1073 17.8167 11.1155C17.8217 11.1156 17.8267 11.1157 17.8318 11.1157C18.1485 11.1157 18.4092 10.863 18.4172 10.5445C18.4775 8.17421 17.467 5.72225 15.5138 4.02842C15.2693 3.81639 14.8993 3.84272 14.6872 4.08721C14.4752 4.3317 14.5015 4.70178 14.746 4.91377Z" fill="#131416"/>
<path d="M5.16676 15.6448C5.49504 15.2633 5.69414 14.7677 5.69414 14.2262C5.69414 13.0252 4.71703 12.0481 3.51605 12.0481C2.31508 12.0481 1.33797 13.0252 1.33797 14.2262C1.33797 14.7677 1.53707 15.2633 1.86535 15.6448C0.756445 16.237 0 17.4059 0 18.7484V19.4141C0 19.7377 0.262344 20.0001 0.585938 20.0001H6.44621C6.7698 20.0001 7.03215 19.7377 7.03215 19.4141V18.7484C7.03215 17.4059 6.2757 16.237 5.16676 15.6448ZM2.50984 14.2262C2.50984 13.6713 2.96125 13.22 3.51605 13.22C4.07086 13.22 4.52227 13.6714 4.52227 14.2262C4.52227 14.781 4.07086 15.2324 3.51605 15.2324C2.96125 15.2324 2.50984 14.781 2.50984 14.2262ZM5.86027 18.8282H1.17188C1.17188 17.3476 2.30371 16.4043 3.51605 16.4043C4.73074 16.4043 5.86027 17.3494 5.86027 18.8282Z" fill="#131416"/>
<path d="M18.1346 15.6448C18.4629 15.2633 18.662 14.7677 18.662 14.2262C18.662 13.0252 17.6848 12.0481 16.4839 12.0481C15.2829 12.0481 14.3058 13.0252 14.3058 14.2262C14.3058 14.7677 14.5049 15.2633 14.8332 15.6448C13.7242 16.237 12.9678 17.4059 12.9678 18.7485V19.4141C12.9678 19.7377 13.2301 20.0001 13.5537 20.0001H19.414C19.7376 20.0001 19.9999 19.7377 19.9999 19.4141V18.7484C19.9999 17.4059 19.2435 16.237 18.1346 15.6448ZM15.4776 14.2262C15.4776 13.6713 15.929 13.22 16.4838 13.22C17.0386 13.22 17.49 13.6714 17.49 14.2262C17.49 14.781 17.0386 15.2324 16.4838 15.2324C15.929 15.2324 15.4776 14.781 15.4776 14.2262ZM18.828 18.8282H14.1396C14.1396 17.3472 15.2719 16.4043 16.4839 16.4043C17.6988 16.4043 18.828 17.3498 18.828 18.8282Z" fill="#131416"/>
<path d="M7.06982 7.9532H12.93C13.2536 7.9532 13.5159 7.69086 13.5159 7.36727V6.70039C13.5159 5.35789 12.7595 4.18891 11.6506 3.59676C11.9788 3.21531 12.178 2.71969 12.178 2.17812C12.178 0.977109 11.2009 0 9.99989 0C8.79888 0 7.82181 0.977109 7.82181 2.17809C7.82181 2.71965 8.02095 3.21527 8.34923 3.59672C7.24033 4.18887 6.48389 5.35785 6.48389 6.70035V7.36723C6.48389 7.69086 6.74623 7.9532 7.06982 7.9532ZM9.99989 1.17188C10.5547 1.17188 11.0061 1.62328 11.0061 2.17809C11.0061 2.73289 10.5547 3.18434 9.99989 3.18434C9.44505 3.18434 8.99369 2.73293 8.99369 2.17812C8.99369 1.62332 9.44505 1.17188 9.99989 1.17188ZM7.65576 6.70039C7.65576 5.40785 8.70732 4.35625 9.99989 4.35625C11.2925 4.35625 12.344 5.40781 12.344 6.70039V6.78133H7.65576V6.70039Z" fill="#131416"/>
</svg>
