<svg width="12" height="12" viewBox="0 0 12 12" fill="none" xmlns="http://www.w3.org/2000/svg">
<g clip-path="url(#clip0)">
<path d="M9.0365 7.3057C8.97854 7.10945 8.90822 6.93865 8.82563 6.79361C8.74309 6.64842 8.62488 6.5068 8.47076 6.36827C8.31682 6.22981 8.17834 6.11831 8.05555 6.03354C7.93283 5.9487 7.76426 5.85385 7.54993 5.74887C7.33578 5.6439 7.16611 5.5658 7.04121 5.51443C6.91614 5.46313 6.73523 5.39282 6.49859 5.30352C6.28879 5.22321 6.13257 5.16181 6.02979 5.11942C5.92713 5.07699 5.79212 5.01676 5.6247 4.93858C5.45734 4.86052 5.33233 4.79128 5.24972 4.73105C5.16713 4.67082 5.07899 4.59717 4.98521 4.51013C4.89144 4.42309 4.8256 4.33044 4.78763 4.23223C4.74975 4.134 4.73075 4.02683 4.73075 3.91075C4.73075 3.60724 4.86463 3.35939 5.13249 3.16748C5.40037 2.97557 5.74641 2.87957 6.17055 2.87957C6.35796 2.87957 6.54902 2.90521 6.74309 2.9566C6.93716 3.00799 7.10348 3.06587 7.24189 3.13066C7.38042 3.19544 7.51094 3.26689 7.63376 3.34497C7.75654 3.42312 7.84356 3.48223 7.89495 3.52241C7.9463 3.56261 7.97883 3.58937 7.99208 3.60279C8.0502 3.64742 8.11032 3.66302 8.17283 3.64967C8.23977 3.64522 8.29116 3.60945 8.32695 3.54255L8.86947 2.56485C8.92302 2.4756 8.91195 2.39076 8.836 2.31036C8.80917 2.28357 8.77581 2.25235 8.73535 2.21661C8.69529 2.18086 8.6082 2.11615 8.47416 2.02235C8.34025 1.92863 8.19851 1.84491 8.04905 1.77124C7.89943 1.69764 7.70518 1.62282 7.46631 1.54696C7.22758 1.47099 6.98086 1.4197 6.72632 1.39293V0.214287C6.72632 0.151825 6.70627 0.100459 6.6662 0.0602564C6.62605 0.020148 6.57468 0 6.51208 0H5.60797C5.54995 0 5.49973 0.02118 5.45732 0.0636105C5.41491 0.106041 5.39371 0.156235 5.39371 0.214287V1.41967C4.69277 1.55355 4.12356 1.85268 3.68605 2.31697C3.24859 2.78129 3.02978 3.3214 3.02978 3.93754C3.02978 4.12056 3.04882 4.29467 3.08677 4.45977C3.12468 4.62501 3.17159 4.77346 3.22741 4.90514C3.28319 5.03691 3.36246 5.16633 3.46513 5.2936C3.56779 5.42082 3.66492 5.53022 3.75642 5.62169C3.84796 5.71314 3.9674 5.80804 4.11467 5.90623C4.26204 6.0045 4.38816 6.08381 4.4931 6.14404C4.59806 6.20408 4.73755 6.27351 4.91161 6.35145C5.08572 6.42963 5.22305 6.48871 5.32351 6.52899C5.42397 6.56912 5.56123 6.62499 5.73541 6.69627C5.97646 6.79002 6.15507 6.86259 6.27112 6.91396C6.38727 6.96532 6.53455 7.03674 6.71323 7.12827C6.89175 7.21969 7.02228 7.30343 7.10493 7.37935C7.18752 7.45528 7.26227 7.54903 7.32928 7.6606C7.3963 7.77218 7.42986 7.89049 7.42986 8.01555C7.42986 8.36825 7.29258 8.64052 7.01794 8.83233C6.74342 9.02436 6.42522 9.12034 6.06366 9.12034C5.89863 9.12034 5.73332 9.10258 5.56819 9.06688C4.98782 8.95066 4.44542 8.67164 3.94094 8.2297L3.92755 8.2163C3.88735 8.16733 3.83375 8.14721 3.76686 8.15619C3.69541 8.1651 3.64404 8.19191 3.61283 8.23664L2.92305 9.1406C2.85607 9.22987 2.86059 9.32137 2.93647 9.41512C2.95882 9.44193 2.99788 9.4822 3.05365 9.53568C3.10957 9.58937 3.21338 9.67294 3.36509 9.787C3.51685 9.9009 3.68204 10.0079 3.86065 10.1085C4.03924 10.2089 4.26577 10.3082 4.54039 10.4064C4.815 10.5045 5.09954 10.5737 5.3942 10.6138V11.7857C5.3942 11.8439 5.41543 11.894 5.45781 11.9365C5.50024 11.979 5.55044 12.0001 5.60847 12.0001H6.51257C6.57517 12.0001 6.62654 11.98 6.66667 11.9399C6.70681 11.8998 6.72679 11.8484 6.72679 11.7858V10.6139C7.43676 10.4978 8.01378 10.1931 8.45793 9.69977C8.90212 9.20644 9.12429 8.61826 9.12429 7.93527C9.12405 7.71209 9.09509 7.50226 9.0365 7.3057Z" fill="#7F8082"/>
</g>
<defs>
<clipPath id="clip0">
<rect width="12" height="12" fill="white"/>
</clipPath>
</defs>
</svg>
