<svg width="13" height="8" viewBox="0 0 13 8" fill="none" xmlns="http://www.w3.org/2000/svg">
<path d="M0.292893 1.70711C-0.0976311 1.31658 -0.0976311 0.683418 0.292893 0.292893C0.683418 -0.0976311 1.31658 -0.0976311 1.70711 0.292893L0.292893 1.70711ZM6.5 6.5L7.20711 7.20711C6.81658 7.59763 6.18342 7.59763 5.79289 7.20711L6.5 6.5ZM11.2929 0.292893C11.6834 -0.0976311 12.3166 -0.0976311 12.7071 0.292893C13.0976 0.683418 13.0976 1.31658 12.7071 1.70711L11.2929 0.292893ZM1.70711 0.292893L7.20711 5.79289L5.79289 7.20711L0.292893 1.70711L1.70711 0.292893ZM5.79289 5.79289L11.2929 0.292893L12.7071 1.70711L7.20711 7.20711L5.79289 5.79289Z" fill="black"/>
</svg>
