<svg width="16" height="16" viewBox="0 0 16 16" fill="none" xmlns="http://www.w3.org/2000/svg">
<path d="M8.00021 10.0935C8.57602 10.0935 9.04289 9.62664 9.04289 9.05083V4.29684C9.04289 3.72094 8.57602 3.25415 8.00021 3.25415C7.42439 3.25415 6.95752 3.72094 6.95752 4.29684V9.05091C6.95752 9.62672 7.42439 10.0935 8.00021 10.0935Z" fill="#C0A27A"/>
<path d="M8.0002 10.661C7.72577 10.661 7.45626 10.772 7.26273 10.9663C7.06846 11.1598 6.95752 11.4284 6.95752 11.7029C6.95752 11.9773 7.06846 12.2467 7.26273 12.4403C7.45626 12.6346 7.72577 12.7456 8.0002 12.7456C8.27464 12.7456 8.54324 12.6346 8.73759 12.4403C8.93103 12.2467 9.04289 11.9773 9.04289 11.7029C9.04289 11.4284 8.93103 11.1598 8.73759 10.9663C8.54324 10.772 8.27464 10.661 8.0002 10.661Z" fill="#C0A27A"/>
<path d="M8 0C3.58885 0 0 3.58876 0 8C0 12.4112 3.58876 16 8 16C12.4112 16 15.9999 12.4112 15.9999 8C15.9999 3.58876 12.4112 0 8 0ZM8 14.7488C4.27869 14.7488 1.25123 11.7213 1.25123 8C1.25123 4.27869 4.27869 1.25123 8 1.25123C11.7212 1.25123 14.7487 4.27869 14.7487 8C14.7487 11.7213 11.7213 14.7488 8 14.7488Z" fill="#C0A27A"/>
</svg>
