<svg width="16" height="16" viewBox="0 0 16 16" fill="none" xmlns="http://www.w3.org/2000/svg">
<g clip-path="url(#clip0)">
<path d="M14.8225 2.66663C14.8225 3.86328 13.8525 4.83337 12.6559 4.83337C11.4592 4.83337 10.4893 3.86328 10.4893 2.66663C10.4893 1.47009 11.4592 0.5 12.6559 0.5C13.8525 0.5 14.8225 1.47009 14.8225 2.66663Z" fill="#C1A27A"/>
<path d="M12.6564 5.33337C11.1857 5.33337 9.98975 4.13733 9.98975 2.66663C9.98975 1.19604 11.1857 0 12.6564 0C14.1271 0 15.323 1.19604 15.323 2.66663C15.323 4.13733 14.1271 5.33337 12.6564 5.33337ZM12.6564 1C11.7371 1 10.9897 1.74805 10.9897 2.66663C10.9897 3.58533 11.7371 4.33337 12.6564 4.33337C13.5757 4.33337 14.323 3.58533 14.323 2.66663C14.323 1.74805 13.5757 1 12.6564 1Z" fill="#C1A27A"/>
<path d="M14.8225 13.3334C14.8225 14.5299 13.8525 15.5 12.6559 15.5C11.4592 15.5 10.4893 14.5299 10.4893 13.3334C10.4893 12.1367 11.4592 11.1666 12.6559 11.1666C13.8525 11.1666 14.8225 12.1367 14.8225 13.3334Z" fill="#C1A27A"/>
<path d="M12.6564 16C11.1857 16 9.98975 14.804 9.98975 13.3334C9.98975 11.8627 11.1857 10.6666 12.6564 10.6666C14.1271 10.6666 15.323 11.8627 15.323 13.3334C15.323 14.804 14.1271 16 12.6564 16ZM12.6564 11.6666C11.7371 11.6666 10.9897 12.4147 10.9897 13.3334C10.9897 14.252 11.7371 15 12.6564 15C13.5757 15 14.323 14.252 14.323 13.3334C14.323 12.4147 13.5757 11.6666 12.6564 11.6666Z" fill="#C1A27A"/>
<path d="M5.48962 8C5.48962 9.19666 4.51953 10.1666 3.32288 10.1666C2.12634 10.1666 1.15625 9.19666 1.15625 8C1.15625 6.80335 2.12634 5.83337 3.32288 5.83337C4.51953 5.83337 5.48962 6.80335 5.48962 8Z" fill="#C1A27A"/>
<path d="M3.32288 10.6666C1.85229 10.6666 0.65625 9.4707 0.65625 8C0.65625 6.5293 1.85229 5.33337 3.32288 5.33337C4.79358 5.33337 5.98962 6.5293 5.98962 8C5.98962 9.4707 4.79358 10.6666 3.32288 10.6666ZM3.32288 6.33337C2.40356 6.33337 1.65625 7.0813 1.65625 8C1.65625 8.9187 2.40356 9.66663 3.32288 9.66663C4.24231 9.66663 4.98962 8.9187 4.98962 8C4.98962 7.0813 4.24231 6.33337 3.32288 6.33337Z" fill="#C1A27A"/>
<path d="M4.89682 7.68006C4.66477 7.68006 4.43943 7.55933 4.31675 7.34339C4.13474 7.02405 4.2468 6.61671 4.56614 6.43397L10.752 2.90736C11.0714 2.72401 11.4787 2.83607 11.6615 3.15662C11.8435 3.47596 11.7314 3.88331 11.4121 4.06605L5.22605 7.59266C5.12204 7.65198 5.00876 7.68006 4.89682 7.68006Z" fill="#C1A27A"/>
<path d="M11.0819 13.1801C10.9698 13.1801 10.8566 13.152 10.7526 13.0927L4.56653 9.56604C4.2472 9.38403 4.13526 8.97668 4.31726 8.65662C4.49854 8.33667 4.9065 8.224 5.22656 8.40735L11.4126 11.934C11.7319 12.116 11.8439 12.5233 11.6619 12.8434C11.5386 13.0593 11.3132 13.1801 11.0819 13.1801Z" fill="#C1A27A"/>
</g>
<defs>
<clipPath id="clip0">
<rect width="16" height="16" fill="white"/>
</clipPath>
</defs>
</svg>
