<svg width="15" height="13" viewBox="0 0 15 13" fill="none" xmlns="http://www.w3.org/2000/svg">
<path d="M0 12.8156H2.9636V11.8344H1.12136V0.981191H2.9636V0H0V12.8156Z" fill="#C0A27B"/>
<path d="M14.9884 0H12.0248V0.981191H13.867V11.8344H12.0248V12.8156H14.9884V0Z" fill="#C0A27B"/>
<path d="M8.15968 9.49878H8.8788L9.21319 7.45648H10.3027L10.4177 6.73737H9.33185L9.63388 4.89642H10.7341L10.8492 4.17731H9.75253L10.0869 2.13501H9.3678L9.03341 4.17731H7.16371L7.4981 2.13501H6.77898L6.44459 4.17731H5.35512L5.24006 4.89642H6.32593L6.0239 6.73737H4.92365L4.80859 7.45648H5.90525L5.57086 9.49878H6.28998L6.62437 7.45648H8.49407L8.15968 9.49878ZM6.74302 6.73737L7.04505 4.89642H8.91476L8.61273 6.73737H6.74302Z" fill="#C0A27B"/>
</svg>
