<svg width="14" height="14" viewBox="0 0 14 14" fill="none" xmlns="http://www.w3.org/2000/svg">
<path fill-rule="evenodd" clip-rule="evenodd" d="M6.99984 2.04167C4.26575 2.04167 2.0415 4.26592 2.0415 7.00001C2.0415 9.73409 4.26575 11.9583 6.99984 11.9583C9.73392 11.9583 11.9582 9.73409 11.9582 7.00001C11.9582 4.26592 9.73392 2.04167 6.99984 2.04167ZM6.99984 12.8333C3.78334 12.8333 1.1665 10.2165 1.1665 7.00001C1.1665 3.78351 3.78334 1.16667 6.99984 1.16667C10.2163 1.16667 12.8332 3.78351 12.8332 7.00001C12.8332 10.2165 10.2163 12.8333 6.99984 12.8333Z" fill="#454545"/>
<path fill-rule="evenodd" clip-rule="evenodd" d="M9.00141 9.15391C8.925 9.15391 8.848 9.13408 8.77741 9.09266L6.57825 7.78074C6.44641 7.70141 6.36475 7.55849 6.36475 7.40449V4.57649C6.36475 4.33499 6.56075 4.13899 6.80225 4.13899C7.04433 4.13899 7.23975 4.33499 7.23975 4.57649V7.15599L9.226 8.34016C9.43308 8.46441 9.50133 8.73274 9.37766 8.94041C9.29541 9.07749 9.15016 9.15391 9.00141 9.15391Z" fill="#454545"/>
</svg>
