<svg width="13" height="8" viewBox="0 0 13 8" fill="none" xmlns="http://www.w3.org/2000/svg">
<path d="M12.7071 5.79289C13.0976 6.18342 13.0976 6.81658 12.7071 7.20711C12.3166 7.59763 11.6834 7.59763 11.2929 7.20711L12.7071 5.79289ZM6.5 1L5.79289 0.292893C6.18342 -0.0976311 6.81658 -0.0976311 7.20711 0.292893L6.5 1ZM1.70711 7.20711C1.31658 7.59763 0.683418 7.59763 0.292893 7.20711C-0.0976311 6.81658 -0.0976311 6.18342 0.292893 5.79289L1.70711 7.20711ZM11.2929 7.20711L5.79289 1.70711L7.20711 0.292893L12.7071 5.79289L11.2929 7.20711ZM7.20711 1.70711L1.70711 7.20711L0.292893 5.79289L5.79289 0.292893L7.20711 1.70711Z" fill="black"/>
</svg>
