<svg width="16" height="16" viewBox="0 0 16 16" fill="none" xmlns="http://www.w3.org/2000/svg">
<path d="M12.9531 0H3.04688C1.88375 0 0.9375 0.94625 0.9375 2.10938V16L6.35938 13.2891L11.7812 16V8.46875H15.0625V2.10938C15.0625 0.94625 14.1163 0 12.9531 0ZM10.8438 2.10938V14.4831L6.35938 12.2409L1.875 14.4831V2.10938C1.875 1.46319 2.40069 0.9375 3.04688 0.9375H11.2C10.9751 1.27288 10.8438 1.67613 10.8438 2.10938ZM14.125 7.53125H11.7812V2.10938C11.7812 1.46319 12.3069 0.9375 12.9531 0.9375C13.5993 0.9375 14.125 1.46319 14.125 2.10938V7.53125Z" fill="#C4A680"/>
</svg>
