<svg width="16" height="16" viewBox="0 0 16 16" fill="none" xmlns="http://www.w3.org/2000/svg">
<path d="M12.2801 6.23747C13.0601 5.59053 13.5578 4.61443 13.5578 3.52425C13.5577 1.58106 11.9768 0.00012207 10.0336 0.00012207C8.09038 0.00012207 6.50947 1.58106 6.50947 3.52425C6.50947 3.77825 6.53672 4.02597 6.58803 4.26487C6.38734 4.22925 6.18091 4.21059 5.97016 4.21059C4.02694 4.21059 2.44603 5.79153 2.44603 7.73472C2.44603 8.82481 2.94362 9.80081 3.7235 10.4478C1.54184 11.3372 0 13.4811 0 15.9787H1.25028C1.25028 13.3762 3.36759 11.2589 5.97013 11.2589C7.91334 11.2589 9.49425 9.67793 9.49425 7.73475C9.49425 7.48075 9.467 7.233 9.41569 6.99409C9.61637 7.02972 9.82281 7.04837 10.0336 7.04837C11.5673 7.04837 12.9319 7.78412 13.7945 8.92075L14.6417 7.97743C14.0155 7.2175 13.2053 6.61481 12.2801 6.23747ZM5.97016 10.0086C4.71637 10.0086 3.69631 8.98853 3.69631 7.73472C3.69631 6.4809 4.71637 5.46087 5.97016 5.46087C7.22394 5.46087 8.244 6.48093 8.244 7.73472C8.244 8.9885 7.22394 10.0086 5.97016 10.0086ZM10.0336 5.79806C8.77981 5.79806 7.75975 4.77803 7.75975 3.52422C7.75975 2.2704 8.77981 1.2504 10.0336 1.2504C11.2874 1.2504 12.3074 2.27043 12.3074 3.52425C12.3074 4.77809 11.2874 5.79806 10.0336 5.79806Z" fill="#C4A680"/>
<path d="M15.0697 9.37195L10.7272 14.2069L8.27655 11.8742L7.41455 12.7798L10.7974 15.9999L15.9999 10.2074L15.0697 9.37195Z" fill="#C4A680"/>
</svg>
