<svg width="24" height="24" viewBox="0 0 24 24" fill="none" xmlns="http://www.w3.org/2000/svg">
<g clip-path="url(#clip0)">
<rect width="24" height="24" fill="white"/>
<path d="M21.5398 19.3044L21.539 19.3033L21.5379 19.3023L20.6923 18.4567C20.5431 18.3064 20.34 18.222 20.1283 18.2226H20.1275C20.0584 18.2235 19.9897 18.2335 19.9232 18.2522L18.9199 17.249C18.9941 16.9748 18.9165 16.6817 18.7162 16.4802L18.1025 15.8639C21.1495 11.6382 20.4398 5.78076 16.4719 2.40499C12.5039 -0.970784 6.60857 -0.732666 2.92576 2.95204C-0.757059 6.63674 -0.992157 12.5323 2.38569 16.4985C5.76335 20.4648 11.6211 21.1714 15.8453 18.1223L16.4575 18.7387C16.6571 18.9424 16.9521 19.0206 17.2263 18.9422L18.2296 19.9457C18.1514 20.2199 18.2297 20.515 18.4337 20.7142L19.28 21.5604L19.2808 21.5615L19.2819 21.5623L21.2569 23.5373C21.6582 23.951 22.2511 24.1163 22.8086 23.9699C23.366 23.8236 23.8013 23.3883 23.9476 22.8309C24.094 22.2736 23.9285 21.6805 23.515 21.2794L21.5398 19.3044ZM0.828762 10.0329C0.825741 5.98753 3.47092 2.41669 7.34181 1.24083C11.2127 0.0651543 15.3971 1.56128 17.6446 4.92496C19.8922 8.28865 19.6736 12.727 17.1062 15.8533C17.0966 15.8652 17.0867 15.8767 17.0771 15.8884C16.7128 16.3271 16.3089 16.7312 15.8705 17.0956C15.8561 17.1075 15.8418 17.1196 15.8274 17.1315C13.0839 19.3834 9.28774 19.8511 6.07965 18.3329C2.87156 16.8145 0.826685 13.5822 0.828762 10.0329ZM16.6396 17.4846C16.7157 17.4168 16.7901 17.3475 16.8641 17.2775C16.9989 17.1498 17.1302 17.0186 17.2578 16.8836C17.3271 16.8103 17.3959 16.7367 17.4629 16.6613C17.5112 16.6071 17.5635 16.5567 17.6108 16.5014L18.151 17.0441L18.1518 17.0452L17.0227 18.1743V18.1744L16.4821 17.6304C16.5365 17.584 16.5861 17.5322 16.6396 17.4846ZM18.4339 17.8919L19.2806 18.7387L18.7162 19.3031L17.8695 18.4564L18.4339 17.8919ZM20.1275 19.0208L20.6921 19.5856L19.5631 20.7146L18.9985 20.1498L20.1275 19.0208ZM22.9504 22.9729C22.6345 23.2744 22.1373 23.2744 21.8214 22.9729L20.1277 21.279L21.2566 20.1502L22.9504 21.8438C23.1001 21.9934 23.1842 22.1966 23.1842 22.4083C23.1842 22.6199 23.1001 22.8231 22.9504 22.9729Z" fill="#4D4D4D"/>
<path d="M11.927 15.4942C12.129 15.1865 12.3685 14.9056 12.64 14.6574C13.2715 14.1534 13.5989 13.3598 13.5067 12.557C13.9607 12.2334 14.2698 11.7451 14.3682 11.1965C14.5257 9.84011 14.1543 9.6662 14.0143 9.60067C13.9301 9.56121 13.8383 9.54006 13.7452 9.53874C13.7458 9.4734 13.7441 9.40108 13.7437 9.33291C14.6533 8.90577 15.2002 8.31321 15.2002 7.63775C15.2002 6.81935 14.4116 6.11425 13.039 5.67578C12.9361 5.14062 12.7754 4.61812 12.5601 4.11734C12.4634 3.90263 12.2771 3.74137 12.0507 3.6766C11.8242 3.61183 11.5806 3.65016 11.3852 3.7814C11.3219 3.82389 11.253 3.87469 11.1777 3.92964C10.8535 4.22138 10.4446 4.40172 10.0105 4.44402C9.57656 4.40172 9.16736 4.22138 8.84332 3.92945C8.76817 3.8745 8.69905 3.82389 8.6358 3.7814C8.44035 3.65016 8.19695 3.61183 7.97073 3.67641C7.74431 3.74118 7.55813 3.90244 7.46163 4.11696C7.24598 4.61774 7.08529 5.14043 6.98218 5.67578C5.60937 6.11425 4.8208 6.81935 4.8208 7.63775C4.8208 8.31321 5.36785 8.90577 6.27746 9.33272C6.27708 9.4007 6.27519 9.47283 6.27576 9.53817C6.18267 9.53968 6.09108 9.56102 6.00686 9.60067C5.86675 9.6662 5.49531 9.84011 5.65431 11.2099C5.75571 11.7534 6.06389 12.2364 6.51444 12.5569C6.42211 13.3596 6.74954 14.1533 7.381 14.6574C7.65273 14.9056 7.89217 15.1865 8.09403 15.4942C8.41411 15.9492 8.74513 16.4202 9.53729 16.4202H10.4837C11.2761 16.4202 11.6069 15.9492 11.927 15.4942ZM7.09227 10.0522C7.08472 9.91905 7.07792 9.78346 7.07566 9.63712C7.75678 9.83634 8.45829 9.95851 9.16679 10.0012C9.20513 10.004 9.24346 10.0065 9.28198 10.0089C9.37432 10.0144 9.46647 10.0199 9.56051 10.0233C9.5777 10.0238 9.59431 10.0257 9.6115 10.0263V10.6158C9.23364 10.7773 8.82406 10.8509 8.41373 10.8313C7.86762 10.8192 7.36722 10.5241 7.09227 10.0522ZM10.4097 10.0263C10.4271 10.0257 10.4435 10.0238 10.4607 10.0233C10.5547 10.0199 10.6469 10.0144 10.7392 10.0089C10.7779 10.0065 10.8161 10.004 10.8544 10.0012C11.5629 9.95851 12.2644 9.83634 12.9455 9.63712C12.9433 9.78346 12.9367 9.91905 12.9289 10.0522C12.6538 10.5241 12.1534 10.819 11.6075 10.8313C11.1971 10.8506 10.7879 10.7775 10.4097 10.6174V10.0263ZM8.19147 4.44496C8.24604 4.48159 8.30572 4.52522 8.37049 4.57261C8.82878 4.96992 9.4051 5.20539 10.0105 5.24259C10.6159 5.20539 11.1924 4.97011 11.6507 4.5728C11.7153 4.52522 11.775 4.48159 11.8331 4.44685C12.061 4.98748 12.2217 5.55417 12.3116 6.13407C12.3258 6.22075 12.3369 6.30667 12.3477 6.39259C12.3554 6.4532 12.3643 6.51287 12.3705 6.57481C12.3822 6.69113 12.3894 6.80594 12.3951 6.92C12.3966 6.95134 12.4002 6.98175 12.4013 7.01328C11.787 7.34487 11.1127 7.55089 10.4178 7.61925C10.2856 7.63114 10.1497 7.63775 10.0105 7.63775C9.62471 7.63624 9.24044 7.58771 8.86617 7.49329C8.43223 7.38528 8.01359 7.22383 7.61968 7.01234C7.62063 6.98118 7.62422 6.95115 7.62573 6.92019C7.63158 6.80556 7.63876 6.69057 7.65046 6.57387C7.6567 6.51231 7.66557 6.45301 7.67331 6.39278C7.68408 6.30686 7.69541 6.22075 7.70919 6.13407C7.79908 5.55303 7.9611 4.98559 8.19147 4.44496ZM5.61938 7.63775C5.61938 7.26537 6.08598 6.86788 6.84811 6.5648C6.84566 6.59124 6.8466 6.61654 6.84453 6.64279C6.82829 6.83937 6.81696 7.03764 6.81696 7.23856C6.81696 7.37206 6.88361 7.49669 6.99465 7.57072C7.90331 8.12626 8.94548 8.42537 10.0105 8.43614C11.0755 8.42537 12.1177 8.12626 13.0264 7.57072C13.1374 7.49669 13.2042 7.37206 13.2042 7.23856C13.2042 7.03764 13.1927 6.83937 13.1767 6.6426C13.1746 6.61635 13.1753 6.59124 13.1731 6.5648C13.9352 6.86788 14.4018 7.26537 14.4018 7.63775C14.4018 8.01013 13.9414 8.40479 13.1735 8.70844C13.1204 8.72959 13.0641 8.74866 13.009 8.76867C12.2121 9.03814 11.3803 9.19053 10.5396 9.22074C10.516 9.22187 10.493 9.22395 10.4692 9.22508C10.3189 9.23132 10.1659 9.23434 10.0105 9.23453C9.85509 9.23471 9.70233 9.2315 9.55201 9.22508C9.52803 9.22395 9.50499 9.22187 9.48139 9.22074C8.64071 9.19053 7.8089 9.03814 7.01202 8.76867C6.95707 8.74866 6.90061 8.72959 6.84774 8.70844C6.07956 8.40479 5.61938 8.01051 5.61938 7.63775ZM8.74702 15.0347C8.50947 14.6752 8.22754 14.347 7.90803 14.0577C7.26676 13.494 7.28904 13.041 7.3202 12.4141L7.32341 12.3495C7.33001 12.2079 7.26109 12.0733 7.1425 11.9958C7.1189 11.9803 7.0936 11.9675 7.06716 11.9577C6.7469 11.7758 6.52049 11.4648 6.44571 11.1044C6.42192 10.898 6.41342 10.6901 6.42022 10.4825C6.84056 11.1852 7.59514 11.6195 8.41373 11.6299C8.96418 11.655 9.51236 11.5453 10.0105 11.31C10.5088 11.5453 11.057 11.655 11.6075 11.6299C12.4261 11.6193 13.1806 11.185 13.6008 10.4823C13.6076 10.6846 13.5998 10.8868 13.5776 11.0879C13.5067 11.455 13.2788 11.7728 12.9538 11.9577C12.9274 11.9675 12.9023 11.9803 12.8787 11.9958C12.7599 12.0733 12.6912 12.2079 12.6978 12.3495L12.701 12.4141C12.7322 13.0408 12.7542 13.494 12.113 14.0577C11.7935 14.347 11.5115 14.6752 11.274 15.0347C10.9607 15.4807 10.844 15.6218 10.4837 15.6218H9.53729C9.17699 15.6218 9.06048 15.4807 8.74702 15.0347Z" fill="#4D4D4D"/>
<path d="M11.4908 13.3452C11.3355 13.1896 11.0838 13.1883 10.9271 13.3424C10.7874 13.487 10.607 13.586 10.4097 13.6258C10.1893 13.6258 10.0105 13.8045 10.0105 14.025C10.0105 14.2456 10.1893 14.4242 10.4097 14.4242C10.8195 14.3844 11.2018 14.2016 11.4904 13.9081C11.646 13.7527 11.646 13.5006 11.4908 13.3452Z" fill="#4D4D4D"/>
</g>
<defs>
<clipPath id="clip0">
<rect width="24" height="24" fill="white"/>
</clipPath>
</defs>
</svg>
