<svg width="20" height="20" viewBox="0 0 20 20" fill="none" xmlns="http://www.w3.org/2000/svg">
<g clip-path="url(#clip0)">
<path d="M7.646 10.5933H12.3298V11.7642H7.646V10.5933Z" fill="#C4A680"/>
<path d="M7.646 12.9352H12.3298V14.1061H7.646V12.9352Z" fill="#C4A680"/>
<path d="M7.646 15.2771H12.3298V16.4481H7.646V15.2771Z" fill="#C4A680"/>
<path d="M4.71826 20.0001H15.257V3.56741H13.681H12.0759H7.98502L6.36053 3.56754L4.71826 3.56756V20.0001ZM5.88922 4.73837H7.48651L8.94388 6.25418C8.5119 6.57446 8.23114 7.08792 8.23114 7.66592C8.23114 8.63439 9.0191 9.42236 9.98773 9.42236C10.9562 9.42236 11.7442 8.63439 11.7442 7.66592C11.7442 6.78884 11.098 6.05993 10.2567 5.92993L9.11096 4.73837H14.0861V18.8291H5.88922V4.73837ZM10.5731 7.66592C10.5731 7.98864 10.3105 8.2514 9.98758 8.2514C9.66486 8.2514 9.4021 7.98864 9.4021 7.66592C9.4021 7.34304 9.66486 7.08029 9.98758 7.08029C10.3105 7.08029 10.5731 7.34304 10.5731 7.66592Z" fill="#C4A680"/>
</g>
<defs>
<clipPath id="clip0">
<rect width="20" height="20" fill="white"/>
</clipPath>
</defs>
</svg>
