<svg width="24" height="24" viewBox="0 0 24 24" fill="none" xmlns="http://www.w3.org/2000/svg">
<g clip-path="url(#clip0)">
<rect width="24" height="24" fill="white"/>
<path d="M22.167 13.1999C22.1623 13.1999 22.1576 13.1999 22.1528 13.2C21.6968 13.1991 21.2574 13.3706 20.9224 13.68L16.5888 17.68C16.3675 17.8856 16.0765 17.9999 15.7744 18H9.6972C9.25535 18 8.8972 17.6419 8.8972 17.2C8.8972 16.7582 9.25535 16.4 9.6972 16.4H13.9028C14.7865 16.4 15.5028 15.6837 15.5028 14.8C15.5028 13.9164 14.7865 13.2 13.9028 13.2H7.3764C6.4017 13.1997 5.44665 13.4738 4.6204 13.9908L3.2 14.88V14.4H0V24H3.2V23.2H11.6332C11.898 23.2 12.1623 23.1798 12.424 23.1396L15.708 22.6344C16.8018 22.4685 17.8134 21.9559 18.594 21.172L23.4684 16.2968C23.8099 15.9574 24.0013 15.4955 24 15.014C23.9948 14.0069 23.1741 13.1947 22.167 13.1999ZM2.4 23.2H0.8V15.2H2.4V23.2ZM22.9024 15.732L22.9028 15.7312L18.0284 20.6064C17.3678 21.2696 16.5119 21.7034 15.5864 21.844L12.3024 22.3492C12.081 22.3831 11.8573 22.4001 11.6332 22.4H3.2V15.8216L5.0448 14.6688C5.74385 14.2316 6.55185 13.9998 7.3764 14H13.9028C14.3447 14 14.7028 14.3582 14.7028 14.8C14.7028 15.2419 14.3447 15.6 13.9028 15.6H9.6972C8.81355 15.6 8.0972 16.3164 8.0972 17.2C8.0972 18.0837 8.81355 18.8 9.6972 18.8H15.7744C16.2774 18.8006 16.7619 18.6111 17.1312 18.2696L21.4652 14.2696C21.6618 14.091 21.9196 13.9948 22.1852 14.0008C22.7452 14.0006 23.1994 14.4544 23.1996 15.0144C23.1997 15.2836 23.0928 15.5417 22.9024 15.732Z" fill="#4D4D4D"/>
<path d="M17.92 4.16001C17.8444 4.05931 17.7259 4.00001 17.6 4.00001H13.8708L12.3716 0.251609C12.2895 0.0465095 12.0568 -0.0532905 11.8516 0.0287595C11.75 0.0694095 11.6694 0.149959 11.6288 0.251609L10.1292 4.00001H6.4C6.1791 4.00001 6 4.17911 6 4.40001C6 4.52591 6.0593 4.64446 6.16 4.72001L9.1228 6.94201L7.624 11.062C7.5485 11.2696 7.6556 11.4991 7.8632 11.5746C7.99425 11.6223 8.14065 11.5982 8.2496 11.5112L11.986 8.52161L15.334 11.4972C15.4992 11.6439 15.752 11.6289 15.8987 11.4637C15.9883 11.3628 16.021 11.2235 15.9856 11.0932L14.8576 6.95721L17.84 4.72001C18.0167 4.58746 18.0525 4.33671 17.92 4.16001ZM14.16 6.48001C14.0287 6.57841 13.9709 6.74696 14.014 6.90521L14.86 10.0072L12.266 7.70121C12.1204 7.57166 11.9026 7.56596 11.7504 7.68761L8.8632 9.99721L9.9764 6.93681C10.0365 6.77111 9.98115 6.58561 9.84 6.48001L7.6 4.80001H10.4C10.5637 4.80006 10.7109 4.70041 10.7716 4.54841L12 1.47681L13.2284 4.54841C13.2891 4.70041 13.4363 4.80006 13.6 4.80001H16.4L14.16 6.48001Z" fill="#4D4D4D"/>
<path d="M7.88306 0.917413L7.31738 1.48309L8.91741 3.08312L9.48309 2.51744L7.88306 0.917413Z" fill="#4D4D4D"/>
<path d="M16.1171 0.916942L14.5171 2.51697L15.0828 3.08265L16.6828 1.48262L16.1171 0.916942Z" fill="#4D4D4D"/>
<path d="M7.59995 7.20001H5.19995V8.00001H7.59995V7.20001Z" fill="#4D4D4D"/>
<path d="M18.8001 7.20001H16.4001V8.00001H18.8001V7.20001Z" fill="#4D4D4D"/>
<path d="M12.4001 9.59998H11.6001V12H12.4001V9.59998Z" fill="#4D4D4D"/>
</g>
<defs>
<clipPath id="clip0">
<rect width="24" height="24" fill="white"/>
</clipPath>
</defs>
</svg>
