<svg width="24" height="24" viewBox="0 0 24 24" fill="none" xmlns="http://www.w3.org/2000/svg">
<path d="M19.7811 3.09677C19.6374 3.09677 19.4953 3.10415 19.3548 3.11813V0H4.87198L0 4.87198V24H19.3548V13.4465C19.7219 13.2518 20.0617 13.0018 20.3636 12.6999L22.764 10.2995C23.5611 9.50239 24 8.44298 24 7.31571C24 4.98973 22.107 3.09677 19.7811 3.09677ZM4.64516 1.32157V4.64516H1.32157L4.64516 1.32157ZM18.5806 23.2258H0.774194V5.41935H5.41935V0.774194H18.5806V3.27067C17.914 3.46724 17.3029 3.82768 16.7977 4.33272L14.3972 6.73318C14.2789 6.85131 14.1704 6.97814 14.0678 7.10856C13.3501 7.2953 12.691 7.66576 12.1525 8.20369L9.75208 10.6041C8.95502 11.4008 8.51613 12.4602 8.51613 13.5875C8.51613 15.9135 10.4091 17.8065 12.7351 17.8065C13.862 17.8065 14.9214 17.3676 15.7184 16.5709L18.1189 14.1704C18.2368 14.0523 18.3457 13.9255 18.4483 13.795C18.4924 13.7833 18.537 13.7748 18.5806 13.762V23.2258ZM19.2917 10.4871C19.0645 9.13477 18.1939 8.00088 17.0045 7.40984L18.4398 5.97486C18.7978 5.61631 19.2739 5.41935 19.7811 5.41935C20.8265 5.41935 21.6774 6.27029 21.6774 7.31571C21.6774 7.82245 21.4801 8.29895 21.1219 8.65694L19.2917 10.4871ZM18.5799 11.174C18.3431 11.3695 18.0697 11.5084 17.7721 11.5708C17.7902 11.4441 17.8065 11.3167 17.8065 11.1867C17.8065 9.71428 16.6083 8.51613 15.1359 8.51613C14.422 8.51613 13.7516 8.79398 13.2473 9.29845L10.8468 11.6989C10.3424 12.2028 10.0645 12.8736 10.0645 13.5875C10.0645 15.0599 11.2627 16.2581 12.7351 16.2581C13.449 16.2581 14.1194 15.9802 14.6237 15.4757L16.3076 13.7918C16.6149 13.8727 16.9347 13.9204 17.2649 13.9296L15.1711 16.0235C14.5209 16.6739 13.6552 17.0323 12.7351 17.0323C10.8357 17.0323 9.29032 15.4869 9.29032 13.5875C9.29032 12.6674 9.64869 11.8021 10.2991 11.1515L12.6995 8.75107C13.3501 8.1003 14.2158 7.74194 15.1359 7.74194C17.0311 7.74194 18.5729 9.2803 18.5799 11.174ZM15.526 9.33172C16.3851 9.51222 17.0323 10.2751 17.0323 11.1867C17.0323 11.3175 17.016 11.4452 16.9901 11.5715C16.131 11.391 15.4839 10.6281 15.4839 9.71654C15.4839 9.58575 15.5001 9.4576 15.526 9.33172ZM13.2244 10.4161C13.4516 11.7685 14.3222 12.9023 15.5117 13.4934L14.0769 14.9287C13.7183 15.2869 13.2422 15.4839 12.7351 15.4839C11.6896 15.4839 10.8387 14.6329 10.8387 13.5875C10.8387 13.0808 11.036 12.6043 11.3942 12.2463L13.2244 10.4161ZM22.217 9.7517L19.8166 12.1522C19.166 12.8029 18.3003 13.1613 17.3802 13.1613C15.485 13.1613 13.9429 11.6229 13.9359 9.72921C14.1727 9.53377 14.446 9.39485 14.7437 9.33247C14.7259 9.45911 14.7097 9.5865 14.7097 9.71654C14.7097 11.1889 15.9078 12.3871 17.3802 12.3871C18.0941 12.3871 18.7646 12.1092 19.2688 11.6048L21.6693 9.20432C22.1738 8.70042 22.4516 8.02961 22.4516 7.31571C22.4516 5.84331 21.2535 4.64516 19.7811 4.64516C19.0672 4.64516 18.3967 4.92301 17.8925 5.42748L16.2085 7.11139C15.9016 7.03049 15.5814 6.98286 15.2516 6.97398L17.3455 4.8801C17.9953 4.22933 18.861 3.87097 19.7811 3.87097C21.6804 3.87097 23.2258 5.41633 23.2258 7.31571C23.2258 8.23582 22.8674 9.10112 22.217 9.7517Z" fill="#4D4D4D"/>
</svg>
