<svg width="109" height="19" viewBox="0 0 109 19" fill="none" xmlns="http://www.w3.org/2000/svg">
<path d="M0.917614 18H3.55114V11.3949H7.13068C7.19034 11.3949 7.24148 11.3949 7.30114 11.3949L10.8466 18H13.8466L9.97727 10.9347C12.1165 10.142 13.1818 8.3608 13.1818 6.01705C13.1818 2.80398 11.1875 0.545454 7.1392 0.545454H0.917614V18ZM3.55114 9.12784V2.80398H6.85795C9.45739 2.80398 10.5312 4.03977 10.5312 6.01705C10.5312 7.9858 9.45739 9.12784 6.89205 9.12784H3.55114ZM31.6443 9.27273C31.6443 3.69034 28.3034 0.306818 23.7863 0.306818C19.2522 0.306818 15.9199 3.69034 15.9199 9.27273C15.9199 14.8466 19.2522 18.2386 23.7863 18.2386C28.3034 18.2386 31.6443 14.8551 31.6443 9.27273ZM29.0363 9.27273C29.0363 13.5256 26.7863 15.8352 23.7863 15.8352C20.7778 15.8352 18.5363 13.5256 18.5363 9.27273C18.5363 5.01989 20.7778 2.71023 23.7863 2.71023C26.7863 2.71023 29.0363 5.01989 29.0363 9.27273ZM44.5436 5.13068H47.0833C47.0066 2.33523 44.535 0.306818 40.9896 0.306818C37.4867 0.306818 34.8021 2.30966 34.8021 5.31818C34.8021 7.74716 36.5407 9.17045 39.3447 9.92898L41.4072 10.4915C43.2737 10.9858 44.714 11.5994 44.714 13.1506C44.714 14.8551 43.0862 15.9801 40.8447 15.9801C38.8163 15.9801 37.1288 15.0767 36.9754 13.1761H34.3333C34.5038 16.3381 36.9498 18.2898 40.8617 18.2898C44.9612 18.2898 47.322 16.1335 47.322 13.1761C47.322 10.0312 44.518 8.8125 42.3021 8.26705L40.5975 7.82386C39.2339 7.47443 37.4186 6.83523 37.4271 5.16477C37.4271 3.68182 38.7822 2.58239 40.9299 2.58239C42.9328 2.58239 44.3561 3.51989 44.5436 5.13068ZM50.565 18H61.6104V15.733H53.1985V10.3892H60.9371V8.13068H53.1985V2.8125H61.5082V0.545454H50.565V18ZM64.2611 2.8125H69.6986V18H72.3236V2.8125H77.7697V0.545454H64.2611V2.8125ZM79.9899 2.8125H85.4274V18H88.0524V2.8125H93.4985V0.545454H79.9899V2.8125ZM95.968 18L97.5703 13.3807H104.388L105.982 18H108.778L102.496 0.545454H99.4538L93.1726 18H95.968ZM98.3374 11.1648L100.911 3.71591H101.048L103.621 11.1648H98.3374Z" fill="white"/>
</svg>
