<svg width="80" height="80" viewBox="0 0 80 80" fill="none" xmlns="http://www.w3.org/2000/svg">
<path d="M33.3392 63.3396C32.5604 63.3411 31.8056 63.0698 31.2059 62.5729C30.8683 62.2931 30.5893 61.9494 30.3848 61.5616C30.1803 61.1738 30.0543 60.7494 30.0141 60.3128C29.9738 59.8762 30.0201 59.436 30.1502 59.0173C30.2804 58.5986 30.4919 58.2097 30.7725 57.8729L45.7059 40.0062L31.3059 22.1062C31.029 21.7653 30.8222 21.373 30.6974 20.9518C30.5727 20.5307 30.5324 20.0891 30.5788 19.6523C30.6253 19.2155 30.7576 18.7923 30.9682 18.4068C31.1788 18.0213 31.4634 17.6813 31.8059 17.4062C32.1508 17.1028 32.5546 16.8739 32.9922 16.7339C33.4297 16.594 33.8915 16.5459 34.3484 16.5929C34.8054 16.6398 35.2478 16.7807 35.6477 17.0067C36.0476 17.2328 36.3966 17.539 36.6725 17.9062L52.7725 37.9062C53.2628 38.5027 53.5308 39.2508 53.5308 40.0229C53.5308 40.795 53.2628 41.5431 52.7725 42.1396L36.1059 62.1396C35.7715 62.543 35.3467 62.8618 34.866 63.0703C34.3853 63.2788 33.8622 63.3711 33.3392 63.3396Z" fill="#131416"/>
</svg>
