<svg width="80" height="80" viewBox="0 0 80 80" fill="none" xmlns="http://www.w3.org/2000/svg">
<path d="M50.6659 4.03101C38.3869 4.03101 28.0923 12.7132 25.7977 24.4341C23.6272 23.5659 21.3326 23.1318 18.976 23.2558C10.5419 23.5659 3.90625 30.7597 3.90625 39.4419C3.90625 47.938 10.79 54.8217 19.2861 54.8217C20.7125 54.8217 21.8287 53.7054 21.8287 52.2791C21.8287 50.8527 20.7125 49.7364 19.2861 49.7364C13.6427 49.7364 8.99152 45.1473 8.99152 39.4419C8.99152 33.5504 13.5807 28.4651 19.2241 28.2171C21.8287 28.093 24.2473 28.8992 26.2938 30.4496C27.038 31.0077 28.0303 31.1318 28.8985 30.7597C29.7667 30.3876 30.3249 29.5194 30.3869 28.5271C30.821 17.6124 39.6892 8.99225 50.6659 8.99225C61.8907 8.99225 71.007 18.1085 71.007 29.3333C71.007 29.5814 71.007 29.8295 70.945 30.0775V30.5116C70.945 30.6977 70.945 30.8217 70.945 31.0077C70.759 41.3643 62.2628 49.7364 51.8442 49.7364C50.4179 49.7364 49.3016 50.8527 49.3016 52.2791C49.3016 53.7054 50.4179 54.8217 51.8442 54.8217C65.1776 54.8217 76.0303 43.969 76.0303 30.6357C76.0303 30.5736 76.0303 30.5116 76.0303 30.3876C76.0303 30.0155 76.0923 29.7054 76.0923 29.3333C76.0923 15.3798 64.6814 4.03101 50.6659 4.03101Z" fill="#424345"/>
<path d="M38.449 46.8218C37.4568 45.8296 35.8444 45.8296 34.8521 46.8218L18.418 63.2559C17.4258 64.2482 17.4258 65.8606 18.418 66.8528C19.4103 67.8451 21.0227 67.8451 22.0149 66.8528L34.1079 54.7598V73.5505C34.1079 74.9769 35.2242 76.0931 36.6506 76.0931C38.0769 76.0931 39.1932 74.9769 39.1932 73.5505V54.7598L51.2242 66.7908C51.7203 67.2869 52.3405 67.535 53.0227 67.535C53.6428 67.535 54.325 67.2869 54.8211 66.7908C55.8134 65.7986 55.8134 64.1862 54.8211 63.1939L38.449 46.8218Z" fill="#424345"/>
</svg>
