<svg width="16" height="16" viewBox="0 0 16 16" fill="none" xmlns="http://www.w3.org/2000/svg">
<path d="M7.31465 14.7229H1.88715C1.68549 14.7229 1.50174 14.6294 1.38293 14.4664C1.26408 14.3033 1.23137 14.0997 1.29312 13.9076C1.90974 11.9905 3.79024 10.6516 5.86612 10.6516C6.83202 10.6516 7.75958 10.9425 8.54855 11.4927C8.83115 11.6898 9.21996 11.6205 9.41715 11.3379C9.61421 11.0553 9.54493 10.6665 9.26233 10.4694C8.87177 10.197 8.45452 9.97475 8.01805 9.80509C8.59877 9.27709 8.98402 8.53775 9.05096 7.70984C9.93149 6.85209 11.0857 6.38209 12.323 6.38209C13.2889 6.38209 14.2164 6.67297 15.0054 7.22322C15.288 7.42031 15.6768 7.35103 15.874 7.06844C16.0711 6.78584 16.0018 6.397 15.7192 6.19987C15.3286 5.92747 14.9114 5.70525 14.4749 5.53559C15.1155 4.95316 15.5182 4.11353 15.5182 3.18159C15.5182 1.42728 14.091 0 12.3366 0C10.5822 0 9.15499 1.42728 9.15499 3.18166C9.15499 4.10981 9.55449 4.94644 10.1906 5.52859C10.1036 5.56209 10.0171 5.59772 9.93137 5.63547C9.54099 5.80725 9.17383 6.01812 8.83255 6.26619C8.36168 5.09697 7.21549 4.26953 5.87974 4.26953C4.12537 4.26953 2.69812 5.69681 2.69812 7.45119C2.69812 8.37663 3.0953 9.21106 3.72812 9.793C2.03599 10.4271 0.663959 11.7889 0.105396 13.5256C-0.0798538 14.1016 0.0182712 14.7124 0.374646 15.2013C0.730959 15.6902 1.28221 15.9707 1.88718 15.9707H7.31468C7.65924 15.9707 7.93852 15.6913 7.93852 15.3468C7.93852 15.0023 7.65918 14.7229 7.31465 14.7229ZM12.3366 1.24769C13.403 1.24769 14.2706 2.11525 14.2706 3.18162C14.2706 4.248 13.403 5.11556 12.3366 5.11556C11.2703 5.11556 10.4027 4.248 10.4027 3.18162C10.4027 2.11525 11.2703 1.24769 12.3366 1.24769ZM5.87977 5.51719C6.94615 5.51719 7.81371 6.38475 7.81371 7.45112C7.81371 8.5175 6.94615 9.38506 5.87977 9.38506C4.8134 9.38506 3.94583 8.5175 3.94583 7.45112C3.94583 6.38475 4.8134 5.51719 5.87977 5.51719Z" fill="#131416"/>
<path d="M15.7257 10.1901C15.4456 9.98957 15.0558 10.0541 14.8553 10.3343L11.7803 14.6295C11.6963 14.7268 11.5911 14.7479 11.5347 14.7516C11.4767 14.7556 11.364 14.7481 11.2674 14.6561L9.27664 12.7446C9.02808 12.5059 8.63311 12.514 8.39458 12.7625C8.15592 13.011 8.16395 13.4059 8.41245 13.6446L10.4052 15.5579C10.7036 15.842 11.102 16.0001 11.5119 16.0001C11.5471 16.0001 11.5824 15.9989 11.6177 15.9966C12.0642 15.9668 12.4811 15.7497 12.7614 15.4009C12.7687 15.3918 12.7756 15.3826 12.7824 15.3732L15.8699 11.0605C16.0704 10.7804 16.0059 10.3907 15.7257 10.1901Z" fill="#131416"/>
</svg>
