<svg width="80" height="80" viewBox="0 0 80 80" fill="none" xmlns="http://www.w3.org/2000/svg">
<path d="M42.3738 37.5H37.6238C36.6458 37.5 35.7079 37.1115 35.0163 36.42C34.3248 35.7284 33.9363 34.7905 33.9363 33.8125C33.9363 32.8345 34.3248 31.8966 35.0163 31.205C35.7079 30.5135 36.6458 30.125 37.6238 30.125H46.6613C47.3243 30.125 47.9602 29.8616 48.429 29.3928C48.8979 28.9239 49.1613 28.288 49.1613 27.625C49.1613 26.962 48.8979 26.3261 48.429 25.8572C47.9602 25.3884 47.3243 25.125 46.6613 25.125H42.4988V20.5625C42.4988 19.8995 42.2354 19.2636 41.7665 18.7947C41.2977 18.3259 40.6618 18.0625 39.9988 18.0625C39.3357 18.0625 38.6999 18.3259 38.231 18.7947C37.7622 19.2636 37.4988 19.8995 37.4988 20.5625V25.1375C35.2529 25.2374 33.1333 26.204 31.5852 27.8341C30.0372 29.4642 29.1813 31.631 29.1975 33.879C29.2137 36.127 30.1006 38.2812 31.672 39.8888C33.2434 41.4965 35.3767 42.4325 37.6238 42.5H42.3738C43.3518 42.5 44.2897 42.8885 44.9812 43.58C45.6728 44.2716 46.0613 45.2095 46.0613 46.1875C46.0613 47.1655 45.6728 48.1034 44.9812 48.795C44.2897 49.4865 43.3518 49.875 42.3738 49.875H33.3363C32.6732 49.875 32.0374 50.1384 31.5685 50.6072C31.0997 51.0761 30.8363 51.712 30.8363 52.375C30.8363 53.038 31.0997 53.6739 31.5685 54.1428C32.0374 54.6116 32.6732 54.875 33.3363 54.875H37.4988V59.45C37.4988 60.113 37.7622 60.7489 38.231 61.2178C38.6999 61.6866 39.3357 61.95 39.9988 61.95C40.6618 61.95 41.2977 61.6866 41.7665 61.2178C42.2354 60.7489 42.4988 60.113 42.4988 59.45V54.8625C44.7446 54.7626 46.8643 53.796 48.4123 52.1659C49.9604 50.5358 50.8163 48.369 50.8001 46.121C50.7839 43.873 49.8969 41.7188 48.3256 40.1112C46.7542 38.5035 44.6208 37.5675 42.3738 37.5Z" fill="#424345"/>
<path d="M39.9996 7.2876C33.5297 7.2876 27.2051 9.20615 21.8255 12.8006C16.446 16.3951 12.2531 21.5041 9.77721 27.4816C7.30128 33.459 6.65347 40.0364 7.91569 46.382C9.1779 52.7276 12.2935 58.5564 16.8684 63.1313C21.4433 67.7063 27.2721 70.8218 33.6177 72.084C39.9633 73.3463 46.5407 72.6984 52.5182 70.2225C58.4956 67.7466 63.6046 63.5537 67.1991 58.1742C70.7936 52.7947 72.7121 46.47 72.7121 40.0001C72.7022 31.3273 69.2525 23.0125 63.1199 16.8798C56.9873 10.7472 48.6725 7.29752 39.9996 7.2876ZM39.9996 67.7001C34.5181 67.7001 29.1597 66.0745 24.6021 63.0288C20.0445 59.9832 16.4925 55.6544 14.3954 50.5898C12.2983 45.5253 11.7502 39.9526 12.8205 34.5766C13.8908 29.2005 16.5314 24.2626 20.4084 20.3875C24.2853 16.5123 29.2243 13.8739 34.6008 12.8061C39.9774 11.7382 45.5498 12.2888 50.6134 14.3882C55.677 16.4876 60.0042 20.0415 63.0478 24.6005C66.0914 29.1594 67.7146 34.5186 67.7121 40.0001C67.7055 47.3479 64.7837 54.3928 59.588 59.5885C54.3923 64.7842 47.3474 67.706 39.9996 67.7126V67.7001Z" fill="#424345"/>
</svg>
