<svg width="80" height="80" viewBox="0 0 80 80" fill="none" xmlns="http://www.w3.org/2000/svg">
<path d="M67.5 42.4V9.66254C67.4868 7.75401 66.7176 5.92852 65.3611 4.586C64.0045 3.24348 62.1711 2.49338 60.2625 2.50004H9.7375C7.82893 2.49338 5.99553 3.24348 4.63895 4.586C3.28237 5.92852 2.51322 7.75401 2.5 9.66254V41.7875C2.51322 43.6961 3.28237 45.5216 4.63895 46.8641C5.99553 48.2066 7.82893 48.9567 9.7375 48.95H12.5V65.4875C12.4997 66.0071 12.6614 66.5138 12.9624 66.9373C13.2634 67.3608 13.6889 67.6799 14.1797 67.8504C14.6705 68.0209 15.2022 68.0342 15.701 67.8885C16.1997 67.7428 16.6406 67.4454 16.9625 67.0375L30.7125 49.5375H60.2625C62.1668 49.5442 63.9964 48.7976 65.3523 47.4604C66.7082 46.1233 67.4802 44.3042 67.5 42.4ZM29.475 44.5625C29.0974 44.5624 28.7246 44.6478 28.3847 44.8123C28.0448 44.9769 27.7466 45.2163 27.5125 45.5125L17.5 58.25V46.45C17.5 45.787 17.2366 45.1511 16.7678 44.6823C16.2989 44.2134 15.663 43.95 15 43.95H9.7375C9.44858 43.955 9.16151 43.903 8.89269 43.797C8.62387 43.691 8.37857 43.5331 8.17079 43.3323C7.96301 43.1315 7.79683 42.8917 7.68173 42.6266C7.56664 42.3616 7.50488 42.0765 7.5 41.7875V9.66254C7.50488 9.37362 7.56664 9.0885 7.68173 8.82344C7.79683 8.55839 7.96301 8.31861 8.17079 8.1178C8.37857 7.91698 8.62387 7.75907 8.89269 7.65307C9.16151 7.54708 9.44858 7.49508 9.7375 7.50004H60.2625C60.5514 7.49508 60.8385 7.54708 61.1073 7.65307C61.3761 7.75907 61.6214 7.91698 61.8292 8.1178C62.037 8.31861 62.2032 8.55839 62.3183 8.82344C62.4334 9.0885 62.4951 9.37362 62.5 9.66254V42.4125C62.4951 42.7015 62.4334 42.9866 62.3183 43.2516C62.2032 43.5167 62.037 43.7565 61.8292 43.9573C61.6214 44.1581 61.3761 44.316 61.1073 44.422C60.8385 44.528 60.5514 44.58 60.2625 44.575L29.475 44.5625Z" fill="#424345"/>
<path d="M75 16.675C74.337 16.675 73.7011 16.9384 73.2322 17.4073C72.7634 17.8761 72.5 18.512 72.5 19.175V51.25C72.4869 51.8314 72.2441 52.3838 71.8249 52.7867C71.4056 53.1896 70.8439 53.4101 70.2625 53.4H65C64.337 53.4 63.7011 53.6634 63.2322 54.1323C62.7634 54.6011 62.5 55.237 62.5 55.9V67.7125L52.5 55C52.2659 54.7038 51.9677 54.4644 51.6278 54.2998C51.2879 54.1353 50.9151 54.0499 50.5375 54.05H35C34.337 54.05 33.7011 54.3134 33.2322 54.7823C32.7634 55.2511 32.5 55.887 32.5 56.55C32.5 57.2131 32.7634 57.849 33.2322 58.3178C33.7011 58.7867 34.337 59.05 35 59.05H49.3125L63.0625 76.55C63.387 76.9481 63.8262 77.2365 64.3204 77.3762C64.8146 77.5158 65.3398 77.4999 65.8246 77.3305C66.3094 77.1612 66.7303 76.8466 67.03 76.4297C67.3298 76.0127 67.4939 75.5135 67.5 75V58.4625H70.2625C71.2118 58.4658 72.1523 58.2817 73.0303 57.9207C73.9082 57.5597 74.7063 57.029 75.3787 56.3589C76.0511 55.6888 76.5846 54.8926 76.9486 54.0159C77.3126 53.1392 77.5 52.1993 77.5 51.25V19.175C77.5 18.512 77.2366 17.8761 76.7678 17.4073C76.2989 16.9384 75.663 16.675 75 16.675Z" fill="#424345"/>
</svg>
