<svg width="14" height="14" viewBox="0 0 14 14" fill="none" xmlns="http://www.w3.org/2000/svg">
<path d="M4.29183 12.417H2.66683C2.37951 12.417 2.10396 12.3028 1.9008 12.0997C1.69763 11.8965 1.5835 11.6209 1.5835 11.3336V7.54195C1.5835 7.25463 1.69763 6.97908 1.9008 6.77592C2.10396 6.57276 2.37951 6.45862 2.66683 6.45862H4.29183M8.0835 5.37528V3.20862C8.0835 2.77764 7.91229 2.36432 7.60755 2.05957C7.3028 1.75482 6.88947 1.58362 6.4585 1.58362L4.29183 6.45862V12.417H10.4018C10.6631 12.4199 10.9166 12.3283 11.1157 12.1591C11.3148 11.9899 11.446 11.7544 11.4852 11.4961L12.2327 6.62112C12.2562 6.46585 12.2458 6.30732 12.202 6.1565C12.1582 6.00569 12.0821 5.86619 11.9791 5.74769C11.876 5.62918 11.7485 5.5345 11.6052 5.47019C11.4619 5.40589 11.3064 5.37351 11.1493 5.37528H8.0835Z" stroke="#2C77C0" stroke-width="1.08333" stroke-linecap="round" stroke-linejoin="round"/>
</svg>
